<?xml version="1.0" encoding="utf-8"?><svg xmlns="http://www.w3.org/2000/svg" xmlns:xlink="http://www.w3.org/1999/xlink"><symbol preserveAspectRatio="xMidYMid" viewBox="0 0 32 30.5" id="ALARM" xmlns="http://www.w3.org/2000/svg"><defs><style>.acls-1{fill:#95e1d3;fill-rule:evenodd}</style></defs><path d="M30.74 9.503a15.723 15.723 0 0 0-8.243-8.243c1-.787 2.258-1.26 3.629-1.26A5.874 5.874 0 0 1 32 5.874a5.846 5.846 0 0 1-1.26 3.629zM30.5 16c0 3.852-1.512 7.343-3.963 9.94l2.029 2.028a1.483 1.483 0 1 1-2.098 2.097l-2.178-2.178A14.426 14.426 0 0 1 16 30.5c-3.079 0-5.928-.966-8.276-2.603L5.561 30.06a1.5 1.5 0 0 1-2.122-2.121l2.012-2.012C3.008 23.332 1.5 19.845 1.5 16 1.5 7.992 7.992 1.5 16 1.5S30.5 7.992 30.5 16zM16 4.5C9.649 4.5 4.5 9.648 4.5 16c0 6.351 5.149 11.5 11.5 11.5S27.5 22.351 27.5 16c0-6.352-5.149-11.5-11.5-11.5zm6 13h-6a1.5 1.5 0 0 1-1.5-1.5V8a1.5 1.5 0 0 1 3 0v6.499H22a1.5 1.5 0 0 1 0 3.001zM1.287 9.705A5.964 5.964 0 0 1 0 6a6 6 0 0 1 6-6c1.4 0 2.685.483 3.706 1.287a16.057 16.057 0 0 0-8.419 8.418z" class="acls-1"/></symbol><symbol preserveAspectRatio="xMidYMid" viewBox="0 0 32 32" id="BOOK_2" xmlns="http://www.w3.org/2000/svg"><defs><style>.bcls-1{fill:#95e1d3;fill-rule:evenodd}</style></defs><path d="M31.065 25.889l-14.471 5.988a1.489 1.489 0 0 1-1.188 0L.935 25.889A1.5 1.5 0 0 1 0 24.5v-23A1.5 1.5 0 0 1 2.073.114h.001l.002.001.013.005L16 5.877 29.911.12l.013-.005.003-.001A1.5 1.5 0 0 1 32 1.5v23a1.5 1.5 0 0 1-.935 1.389zM14.5 8.503L3 3.744v19.753l11.5 4.759V8.503zM29 3.744L17.5 8.503v19.753L29 23.497V3.744zm-9.121 6.89l5.5-2.5a1.5 1.5 0 0 1 1.242 2.731l-5.5 2.5a1.5 1.5 0 0 1-1.242-2.731zm0 5.5l5.5-2.5a1.5 1.5 0 0 1 1.242 2.731l-5.5 2.501v-.001a1.5 1.5 0 0 1-1.242-2.731zm0 5.5l5.5-2.5a1.5 1.5 0 0 1 1.242 2.731l-5.5 2.5a1.5 1.5 0 0 1-1.242-2.731zM6 8c.221 0 .431.048.621.134l5.5 2.5a1.501 1.501 0 0 1-1.242 2.731l-5.5-2.5A1.5 1.5 0 0 1 6 8zm0 5.5c.221 0 .431.048.621.134l5.5 2.5a1.5 1.5 0 1 1-1.242 2.731v.001l-5.5-2.501A1.5 1.5 0 0 1 6 13.5zM6 19c.221 0 .431.048.621.134l5.5 2.5a1.501 1.501 0 0 1-1.242 2.731l-5.5-2.5A1.5 1.5 0 0 1 6 19z" class="bcls-1"/></symbol><symbol preserveAspectRatio="xMidYMid" viewBox="0 0 32 30.5" id="HOME" xmlns="http://www.w3.org/2000/svg"><defs><style>.ccls-1{fill:#95e1d3;fill-rule:evenodd}</style></defs><path d="M32 16a1.5 1.5 0 0 1-1.5 1.5 1.49 1.49 0 0 1-1.02-.406l-.003.004L16.038 3.659 16 3.622 2.554 17.069l-.001-.001a1.5 1.5 0 1 1-2.092-2.149L14.919.46C15.192.177 15.575 0 16 0h.001c.026 0 .052 0 .079.002l.012.001a.78.78 0 0 1 .068.006h.004c.367.04.694.212.933.468l.001-.001L23 6.378V5a1.5 1.5 0 1 1 3 0v4.378l5.598 5.598-.004.004c.25.268.406.625.406 1.02zm-3 2.5V29a1.5 1.5 0 0 1-1.5 1.5h-3v-12h-6v12h-14A1.5 1.5 0 0 1 3 29V18.5l13-13 13 13zm-15.5 0h-6v6h6v-6z" class="ccls-1"/></symbol><symbol preserveAspectRatio="xMidYMid" viewBox="0 0 32 32" id="IMAGE" xmlns="http://www.w3.org/2000/svg"><defs><style>.dcls-1{fill:#95e1d3;fill-rule:evenodd}</style></defs><path d="M30.5 32h-29A1.5 1.5 0 0 1 0 30.5v-29A1.5 1.5 0 0 1 1.5 0h29A1.5 1.5 0 0 1 32 1.5v29a1.5 1.5 0 0 1-1.5 1.5zM29 3H3v26h26V3zM6.5 4.5H12a1.5 1.5 0 1 1 0 3H7.5V12a1.5 1.5 0 0 1-3 0V4.5h2zM4.5 20a1.5 1.5 0 1 1 3 0v4.499H12v.001a1.5 1.5 0 1 1 0 3H4.5V20zM20 4.5h7.5V12a1.5 1.5 0 0 1-3 0V7.5H20a1.5 1.5 0 0 1 0-3zm0 20v-.001h4.5V20a1.5 1.5 0 1 1 3 0v7.5H20a1.5 1.5 0 0 1 0-3z" class="dcls-1"/></symbol><symbol preserveAspectRatio="xMidYMid" viewBox="0 0 32 32" id="LINE_GRAPH" xmlns="http://www.w3.org/2000/svg"><defs><style>.ecls-1{fill:#95e1d3;fill-rule:evenodd}</style></defs><path d="M30.5 32h-29A1.5 1.5 0 0 1 0 30.5v-29A1.5 1.5 0 0 1 1.5 0h29A1.5 1.5 0 0 1 32 1.5v29a1.5 1.5 0 0 1-1.5 1.5zM29 3H3v26h26V3zM5.215 16.239v-.002l4-2.499v.001a1.49 1.49 0 0 1 1.625.036l.006-.009 6.631 4.42 7.638-5.391a1.5 1.5 0 0 1 1.763 2.426h.001l-8.5 6.001-.001-.001c-.246.179-.55.284-.878.284-.321 0-.618-.1-.861-.272l-6.657-4.438-3.135 1.96a1.5 1.5 0 0 1-1.632-2.516z" class="ecls-1"/></symbol><symbol preserveAspectRatio="xMidYMid" viewBox="0 0 17.62 17.625" id="MAGNIFYING_GLASS" xmlns="http://www.w3.org/2000/svg"><defs><style>.fcls-1{fill:#fff;fill-rule:evenodd}</style></defs><path d="M17.127 14.795a1.65 1.65 0 1 1-2.334 2.334l-4.836-4.836a6.55 6.55 0 0 1-3.347.919 6.6 6.6 0 1 1 6.6-6.6 6.563 6.563 0 0 1-.919 3.348l4.836 4.835zM6.61 1.662a4.95 4.95 0 1 0 0 9.9 4.95 4.95 0 0 0 0-9.9z" class="fcls-1"/></symbol><symbol preserveAspectRatio="xMidYMid" viewBox="0 0 30 30" id="PICTURE" xmlns="http://www.w3.org/2000/svg"><defs><style>.gcls-1{fill:#95e1d3;fill-rule:evenodd}</style></defs><path d="M30 23.999c0 .651-.419 1.2-1 1.407v1.683a1.498 1.498 0 0 1-.5 2.91c-.652 0-1.202-.42-1.408-1.001h-1.684A1.497 1.497 0 0 1 24 29.999c-.652 0-1.202-.42-1.408-1.001h-1.684a1.497 1.497 0 0 1-1.408 1.001c-.652 0-1.201-.42-1.408-1.001h-1.684A1.497 1.497 0 0 1 15 29.999c-.652 0-1.202-.42-1.408-1.001h-1.684a1.496 1.496 0 0 1-1.408 1.001c-.652 0-1.202-.42-1.408-1.001H7.408A1.496 1.496 0 0 1 6 29.999c-.652 0-1.202-.42-1.408-1.001H2.908A1.497 1.497 0 0 1 1.5 29.999a1.498 1.498 0 1 1-.5-2.91v-1.683c-.581-.207-1-.756-1-1.407 0-.654.419-1.202 1-1.409v-1.683c-.581-.208-1-.757-1-1.409 0-.651.419-1.201 1-1.408v-1.684c-.581-.206-1-.755-1-1.407a1.5 1.5 0 0 1 1-1.41v-1.683c-.581-.206-1-.755-1-1.408 0-.652.419-1.202 1-1.407V7.406c-.581-.207-1-.756-1-1.408 0-.652.419-1.202 1-1.408V2.905C.419 2.7 0 2.15 0 1.498A1.5 1.5 0 0 1 1.5-.001c.652 0 1.201.417 1.408 1h1.684a1.493 1.493 0 0 1 2.816 0h1.684a1.493 1.493 0 0 1 2.816 0h1.684c.206-.583.756-1 1.408-1 .652 0 1.201.417 1.408 1h1.684c.207-.583.756-1 1.408-1 .652 0 1.201.417 1.408 1h1.684c.206-.583.756-1 1.408-1 .652 0 1.201.417 1.408 1h1.684c.206-.583.756-1 1.408-1 .828 0 1.5.67 1.5 1.499 0 .652-.419 1.202-1 1.407V4.59c.581.206 1 .756 1 1.408 0 .652-.419 1.201-1 1.408v1.685c.581.205 1 .755 1 1.407 0 .653-.419 1.202-1 1.408v1.683a1.5 1.5 0 0 1 1 1.41c0 .652-.419 1.201-1 1.407v1.684c.581.207 1 .757 1 1.408 0 .652-.419 1.201-1 1.409v1.683c.581.207 1 .755 1 1.409zM26 3.997H4v22.001h22V3.997zM13 19.998l7-8.499 4.5 7v5.999h-19l6-5.999 1.5 1.499zm-3-7a3 3 0 1 1 0-6 3 3 0 0 1 0 6z" class="gcls-1"/></symbol><symbol preserveAspectRatio="xMidYMid" viewBox="0 0 17.62 14.031" id="SHOPPING_CART" xmlns="http://www.w3.org/2000/svg"><defs><style>.hcls-1{fill:#fff;fill-rule:evenodd}</style></defs><path d="M17.536 3.1l.001.001-2.475 5.5a.823.823 0 0 1-.697.484l-7.128.475.412 1.177h7.761a1.65 1.65 0 1 1-1.65 1.65h-7.7a1.65 1.65 0 1 1-1.65-1.65h1.491L2.725 1.662H.835a.825.825 0 1 1 0-1.65H3.31c.36 0 .663.232.776.554l.003-.001.48 1.372h12.216a.825.825 0 0 1 .751 1.163zm-12.389.487l1.525 4.357 7.089-.472 1.748-3.885H5.147z" class="hcls-1"/></symbol><symbol preserveAspectRatio="xMidYMid" viewBox="0 0 16.031 14.25" id="SPEECH_BUBBLE_2" xmlns="http://www.w3.org/2000/svg"><defs><style>.icls-1{fill:#95e1d3;fill-rule:evenodd}</style></defs><path d="M8.447 12.228c-.573 0-1.134-.165-1.676-.243-2.191 2.771-5.647 2.225-5.647 2.225 2.441-1.155 2.391-3.069 1.957-3.324C1.165 9.76.013 8.046.013 6.125c0-3.39 3.727-6.139 8.434-6.139 4.708 0 7.577 2.749 7.577 6.139 0 3.392-2.869 6.103-7.577 6.103zM4.273 4.745a1.5 1.5 0 1 0 0 3 1.5 1.5 0 0 0 0-3zm3.75 0a1.5 1.5 0 1 0 0 3 1.5 1.5 0 0 0 0-3zm3.75 0a1.5 1.5 0 1 0 0 3 1.5 1.5 0 0 0 0-3z" class="icls-1"/></symbol><symbol preserveAspectRatio="xMidYMid" viewBox="0 0 31.938 22.53" id="USERS" xmlns="http://www.w3.org/2000/svg"><defs><style>.jcls-1{fill:#fff;fill-rule:evenodd}</style></defs><path d="M31.95 21.533v.002a.993.993 0 0 1-.995.992h-7.412c.556-.123.972-.614.972-1.205l-.001-.002h.001s0-4.504-3.301-6.142c-1.412-.7-1.505-.566-2.206-.732l.02-1.95s-.771-.588-1.011-2.431c-.482.14-.641-.564-.67-1.012-.026-.431-.279-1.783.31-1.661-.121-.902-.207-1.715-.165-2.147.148-1.512 1.61-3.093 3.861-3.207 2.649.114 3.698 1.694 3.845 3.206.043.432-.051 1.246-.172 2.146.589-.12.333 1.228.304 1.661-.025.448-.188 1.149-.669 1.009-.241 1.843-1.012 2.426-1.012 2.426l.018 1.948s.488.278 2.546 1.127c2.058.851 1.412.214 3.088 1.045 2.649 1.314 2.649 4.927 2.649 4.927zM17.023 14.87c2.262.935 1.552.235 3.395 1.15 2.912 1.443 2.912 5.415 2.912 5.415h-.001v.003a1.09 1.09 0 0 1-1.093 1.089H1.093A1.09 1.09 0 0 1 0 21.438v-.003h-.001s0-3.972 2.912-5.417c1.843-.913 1.133-.171 3.395-1.106 2.262-.933 2.798-1.26 2.798-1.26l.021-2.152s-.847-.646-1.11-2.67c-.53.153-.705-.621-.736-1.113-.029-.475-.307-1.96.339-1.825-.132-.992-.227-1.886-.18-2.359C7.6 1.869 9.207.133 11.682.005c2.911.126 4.065 1.863 4.226 3.525.047.475-.056 1.369-.189 2.359.647-.132.366 1.35.334 1.825-.028.493-.207 1.263-.736 1.11-.264 2.026-1.111 2.666-1.111 2.666l.019 2.142s.536.304 2.798 1.238z" class="jcls-1"/></symbol><symbol preserveAspectRatio="xMidYMid" viewBox="0 0 19.438 11.25" id="VIEW" xmlns="http://www.w3.org/2000/svg"><defs><style>.kcls-1{fill:#95e1d3;fill-rule:evenodd}</style></defs><path d="M19.429 5.646l-.002.024-.001.013-.002.017-.003.021v.002a.757.757 0 0 1-.203.41c-.204.247-.427.479-.651.707-1.212 1.23-2.602 2.327-4.123 3.122-.973.509-2.012.919-3.09 1.116a8.971 8.971 0 0 1-3.55-.05c-2.04-.444-3.887-1.545-5.503-2.863-.75-.611-1.488-1.28-2.108-2.032-.272-.329-.272-.719 0-1.048.203-.247.426-.48.651-.708 1.211-1.229 2.601-2.326 4.123-3.122C5.939.747 6.978.336 8.056.139a8.971 8.971 0 0 1 3.55.051c2.04.443 3.887 1.545 5.503 2.862.75.611 1.488 1.281 2.108 2.033a.754.754 0 0 1 .209.45l.001.012.001.025.002.037-.001.037zm-9.72-3.834a3.645 3.645 0 1 0 0 7.29 3.645 3.645 0 0 0 0-7.29zm0 5.467a1.822 1.822 0 1 1 0-3.643 1.822 1.822 0 0 1 0 3.643z" class="kcls-1"/></symbol><symbol preserveAspectRatio="xMidYMid" viewBox="0 0 21 12" id="_DOWN" xmlns="http://www.w3.org/2000/svg"><defs><style>.lcls-1{fill:#ccc;fill-rule:evenodd}</style></defs><path d="M2.638 11.474l7.859-7.858 7.961 7.962h.001a1.5 1.5 0 0 0 2.12-2.122h.001l-9-9h-.001A1.495 1.495 0 0 0 10.5-.002h-.007c-.424 0-.806.176-1.079.458l-9.001 9 .004.004a1.5 1.5 0 1 0 2.221 2.014z" class="lcls-1"/></symbol><symbol preserveAspectRatio="xMidYMid" viewBox="0 0 31 28" id="_OK" xmlns="http://www.w3.org/2000/svg"><defs><style>.mcls-1{fill:#95e1d3;fill-rule:evenodd}</style></defs><path d="M29.5 23H20v2.5l2 2v.5H9v-.5l2-2V23H1.5A1.5 1.5 0 0 1 0 21.499V1.5A1.5 1.5 0 0 1 1.5 0h28A1.5 1.5 0 0 1 31 1.5v19.999A1.5 1.5 0 0 1 29.5 23zM29 2H2v17h27V2zM12.5 9c.414 0 .789.168 1.061.439l.939.939 2.939-2.939A1.499 1.499 0 0 1 20 8.5c0 .414-.168.789-.439 1.061l-4 4a1.499 1.499 0 0 1-2.122 0l-2-2.001A1.5 1.5 0 0 1 12.5 9z" class="mcls-1"/></symbol><symbol viewBox="0 0 131 101" id="css--svg--sprite.css-8f17ca3d" xmlns="http://www.w3.org/2000/svg"><svg preserveAspectRatio="xMidYMid" width="24" height="22.88" viewBox="0 0 32 30.5" id="nALARM" x="18.36" xmlns="http://www.w3.org/2000/svg"><defs><style>.nacls-1{fill:#95e1d3;fill-rule:evenodd}</style></defs><path d="M30.74 9.503a15.723 15.723 0 0 0-8.243-8.243c1-.787 2.258-1.26 3.629-1.26A5.874 5.874 0 0 1 32 5.874a5.846 5.846 0 0 1-1.26 3.629zM30.5 16c0 3.852-1.512 7.343-3.963 9.94l2.029 2.028a1.483 1.483 0 1 1-2.098 2.097l-2.178-2.178A14.426 14.426 0 0 1 16 30.5c-3.079 0-5.928-.966-8.276-2.603L5.561 30.06a1.5 1.5 0 0 1-2.122-2.121l2.012-2.012C3.008 23.332 1.5 19.845 1.5 16 1.5 7.992 7.992 1.5 16 1.5S30.5 7.992 30.5 16zM16 4.5C9.649 4.5 4.5 9.648 4.5 16c0 6.351 5.149 11.5 11.5 11.5S27.5 22.351 27.5 16c0-6.352-5.149-11.5-11.5-11.5zm6 13h-6a1.5 1.5 0 0 1-1.5-1.5V8a1.5 1.5 0 0 1 3 0v6.499H22a1.5 1.5 0 0 1 0 3.001zM1.287 9.705A5.964 5.964 0 0 1 0 6a6 6 0 0 1 6-6c1.4 0 2.685.483 3.706 1.287a16.057 16.057 0 0 0-8.419 8.418z" class="nacls-1"/></svg><svg preserveAspectRatio="xMidYMid" width="24" height="24" viewBox="0 0 32 32" id="nBOOK_2" x="90.36" xmlns="http://www.w3.org/2000/svg"><defs><style>.nbcls-1{fill:#95e1d3;fill-rule:evenodd}</style></defs><path d="M31.065 25.889l-14.471 5.988a1.489 1.489 0 0 1-1.188 0L.935 25.889A1.5 1.5 0 0 1 0 24.5v-23A1.5 1.5 0 0 1 2.073.114h.001l.002.001.013.005L16 5.877 29.911.12l.013-.005.003-.001A1.5 1.5 0 0 1 32 1.5v23a1.5 1.5 0 0 1-.935 1.389zM14.5 8.503L3 3.744v19.753l11.5 4.759V8.503zM29 3.744L17.5 8.503v19.753L29 23.497V3.744zm-9.121 6.89l5.5-2.5a1.5 1.5 0 0 1 1.242 2.731l-5.5 2.5a1.5 1.5 0 0 1-1.242-2.731zm0 5.5l5.5-2.5a1.5 1.5 0 0 1 1.242 2.731l-5.5 2.501v-.001a1.5 1.5 0 0 1-1.242-2.731zm0 5.5l5.5-2.5a1.5 1.5 0 0 1 1.242 2.731l-5.5 2.5a1.5 1.5 0 0 1-1.242-2.731zM6 8c.221 0 .431.048.621.134l5.5 2.5a1.501 1.501 0 0 1-1.242 2.731l-5.5-2.5A1.5 1.5 0 0 1 6 8zm0 5.5c.221 0 .431.048.621.134l5.5 2.5a1.5 1.5 0 1 1-1.242 2.731v.001l-5.5-2.501A1.5 1.5 0 0 1 6 13.5zM6 19c.221 0 .431.048.621.134l5.5 2.5a1.501 1.501 0 0 1-1.242 2.731l-5.5-2.5A1.5 1.5 0 0 1 6 19z" class="nbcls-1"/></svg><svg preserveAspectRatio="xMidYMid" width="24" height="22.88" viewBox="0 0 32 30.5" id="nHOME" x="66.36" y="24" xmlns="http://www.w3.org/2000/svg"><defs><style>.nccls-1{fill:#95e1d3;fill-rule:evenodd}</style></defs><path d="M32 16a1.5 1.5 0 0 1-1.5 1.5 1.49 1.49 0 0 1-1.02-.406l-.003.004L16.038 3.659 16 3.622 2.554 17.069l-.001-.001a1.5 1.5 0 1 1-2.092-2.149L14.919.46C15.192.177 15.575 0 16 0h.001c.026 0 .052 0 .079.002l.012.001a.78.78 0 0 1 .068.006h.004c.367.04.694.212.933.468l.001-.001L23 6.378V5a1.5 1.5 0 1 1 3 0v4.378l5.598 5.598-.004.004c.25.268.406.625.406 1.02zm-3 2.5V29a1.5 1.5 0 0 1-1.5 1.5h-3v-12h-6v12h-14A1.5 1.5 0 0 1 3 29V18.5l13-13 13 13zm-15.5 0h-6v6h6v-6z" class="nccls-1"/></svg><svg preserveAspectRatio="xMidYMid" width="24" height="24" viewBox="0 0 32 32" id="nIMAGE" x="42.36" xmlns="http://www.w3.org/2000/svg"><defs><style>.ndcls-1{fill:#95e1d3;fill-rule:evenodd}</style></defs><path d="M30.5 32h-29A1.5 1.5 0 0 1 0 30.5v-29A1.5 1.5 0 0 1 1.5 0h29A1.5 1.5 0 0 1 32 1.5v29a1.5 1.5 0 0 1-1.5 1.5zM29 3H3v26h26V3zM6.5 4.5H12a1.5 1.5 0 1 1 0 3H7.5V12a1.5 1.5 0 0 1-3 0V4.5h2zM4.5 20a1.5 1.5 0 1 1 3 0v4.499H12v.001a1.5 1.5 0 1 1 0 3H4.5V20zM20 4.5h7.5V12a1.5 1.5 0 0 1-3 0V7.5H20a1.5 1.5 0 0 1 0-3zm0 20v-.001h4.5V20a1.5 1.5 0 1 1 3 0v7.5H20a1.5 1.5 0 0 1 0-3z" class="ndcls-1"/></svg><svg preserveAspectRatio="xMidYMid" width="24" height="24" viewBox="0 0 32 32" id="nLINE_GRAPH" y="24" xmlns="http://www.w3.org/2000/svg"><defs><style>.necls-1{fill:#95e1d3;fill-rule:evenodd}</style></defs><path d="M30.5 32h-29A1.5 1.5 0 0 1 0 30.5v-29A1.5 1.5 0 0 1 1.5 0h29A1.5 1.5 0 0 1 32 1.5v29a1.5 1.5 0 0 1-1.5 1.5zM29 3H3v26h26V3zM5.215 16.239v-.002l4-2.499v.001a1.49 1.49 0 0 1 1.625.036l.006-.009 6.631 4.42 7.638-5.391a1.5 1.5 0 0 1 1.763 2.426h.001l-8.5 6.001-.001-.001c-.246.179-.55.284-.878.284-.321 0-.618-.1-.861-.272l-6.657-4.438-3.135 1.96a1.5 1.5 0 0 1-1.632-2.516z" class="necls-1"/></svg><svg preserveAspectRatio="xMidYMid" width="17.62" height="17.625" viewBox="0 0 17.62 17.625" id="nMAGNIFYING_GLASS" x="48" y="24" xmlns="http://www.w3.org/2000/svg"><defs><style>.nfcls-1{fill:#fff;fill-rule:evenodd}</style></defs><path d="M17.127 14.795a1.65 1.65 0 1 1-2.334 2.334l-4.836-4.836a6.55 6.55 0 0 1-3.347.919 6.6 6.6 0 1 1 6.6-6.6 6.563 6.563 0 0 1-.919 3.348l4.836 4.835zM6.61 1.662a4.95 4.95 0 1 0 0 9.9 4.95 4.95 0 0 0 0-9.9z" class="nfcls-1"/></svg><svg preserveAspectRatio="xMidYMid" width="24" height="24" viewBox="0 0 30 30" id="nPICTURE" x="66.36" xmlns="http://www.w3.org/2000/svg"><defs><style>.ngcls-1{fill:#95e1d3;fill-rule:evenodd}</style></defs><path d="M30 23.999c0 .651-.419 1.2-1 1.407v1.683a1.498 1.498 0 0 1-.5 2.91c-.652 0-1.202-.42-1.408-1.001h-1.684A1.497 1.497 0 0 1 24 29.999c-.652 0-1.202-.42-1.408-1.001h-1.684a1.497 1.497 0 0 1-1.408 1.001c-.652 0-1.201-.42-1.408-1.001h-1.684A1.497 1.497 0 0 1 15 29.999c-.652 0-1.202-.42-1.408-1.001h-1.684a1.496 1.496 0 0 1-1.408 1.001c-.652 0-1.202-.42-1.408-1.001H7.408A1.496 1.496 0 0 1 6 29.999c-.652 0-1.202-.42-1.408-1.001H2.908A1.497 1.497 0 0 1 1.5 29.999a1.498 1.498 0 1 1-.5-2.91v-1.683c-.581-.207-1-.756-1-1.407 0-.654.419-1.202 1-1.409v-1.683c-.581-.208-1-.757-1-1.409 0-.651.419-1.201 1-1.408v-1.684c-.581-.206-1-.755-1-1.407a1.5 1.5 0 0 1 1-1.41v-1.683c-.581-.206-1-.755-1-1.408 0-.652.419-1.202 1-1.407V7.406c-.581-.207-1-.756-1-1.408 0-.652.419-1.202 1-1.408V2.905C.419 2.7 0 2.15 0 1.498A1.5 1.5 0 0 1 1.5-.001c.652 0 1.201.417 1.408 1h1.684a1.493 1.493 0 0 1 2.816 0h1.684a1.493 1.493 0 0 1 2.816 0h1.684c.206-.583.756-1 1.408-1 .652 0 1.201.417 1.408 1h1.684c.207-.583.756-1 1.408-1 .652 0 1.201.417 1.408 1h1.684c.206-.583.756-1 1.408-1 .652 0 1.201.417 1.408 1h1.684c.206-.583.756-1 1.408-1 .828 0 1.5.67 1.5 1.499 0 .652-.419 1.202-1 1.407V4.59c.581.206 1 .756 1 1.408 0 .652-.419 1.201-1 1.408v1.685c.581.205 1 .755 1 1.407 0 .653-.419 1.202-1 1.408v1.683a1.5 1.5 0 0 1 1 1.41c0 .652-.419 1.201-1 1.407v1.684c.581.207 1 .757 1 1.408 0 .652-.419 1.201-1 1.409v1.683c.581.207 1 .755 1 1.409zM26 3.997H4v22.001h22V3.997zM13 19.998l7-8.499 4.5 7v5.999h-19l6-5.999 1.5 1.499zm-3-7a3 3 0 1 1 0-6 3 3 0 0 1 0 6z" class="ngcls-1"/></svg><svg preserveAspectRatio="xMidYMid" width="17.62" height="14.031" viewBox="0 0 17.62 14.031" id="nSHOPPING_CART" y="72" xmlns="http://www.w3.org/2000/svg"><defs><style>.nhcls-1{fill:#fff;fill-rule:evenodd}</style></defs><path d="M17.536 3.1l.001.001-2.475 5.5a.823.823 0 0 1-.697.484l-7.128.475.412 1.177h7.761a1.65 1.65 0 1 1-1.65 1.65h-7.7a1.65 1.65 0 1 1-1.65-1.65h1.491L2.725 1.662H.835a.825.825 0 1 1 0-1.65H3.31c.36 0 .663.232.776.554l.003-.001.48 1.372h12.216a.825.825 0 0 1 .751 1.163zm-12.389.487l1.525 4.357 7.089-.472 1.748-3.885H5.147z" class="nhcls-1"/></svg><svg preserveAspectRatio="xMidYMid" width="16.031" height="14.25" viewBox="0 0 16.031 14.25" id="nSPEECH_BUBBLE_2" y="86.031" xmlns="http://www.w3.org/2000/svg"><defs><style>.nicls-1{fill:#95e1d3;fill-rule:evenodd}</style></defs><path d="M8.447 12.228c-.573 0-1.134-.165-1.676-.243-2.191 2.771-5.647 2.225-5.647 2.225 2.441-1.155 2.391-3.069 1.957-3.324C1.165 9.76.013 8.046.013 6.125c0-3.39 3.727-6.139 8.434-6.139 4.708 0 7.577 2.749 7.577 6.139 0 3.392-2.869 6.103-7.577 6.103zM4.273 4.745a1.5 1.5 0 1 0 0 3 1.5 1.5 0 0 0 0-3zm3.75 0a1.5 1.5 0 1 0 0 3 1.5 1.5 0 0 0 0-3zm3.75 0a1.5 1.5 0 1 0 0 3 1.5 1.5 0 0 0 0-3z" class="nicls-1"/></svg><svg preserveAspectRatio="xMidYMid" width="24" height="16.93" viewBox="0 0 31.938 22.53" id="nUSERS" x="23.97" y="48" xmlns="http://www.w3.org/2000/svg"><defs><style>.njcls-1{fill:#fff;fill-rule:evenodd}</style></defs><path d="M31.95 21.533v.002a.993.993 0 0 1-.995.992h-7.412c.556-.123.972-.614.972-1.205l-.001-.002h.001s0-4.504-3.301-6.142c-1.412-.7-1.505-.566-2.206-.732l.02-1.95s-.771-.588-1.011-2.431c-.482.14-.641-.564-.67-1.012-.026-.431-.279-1.783.31-1.661-.121-.902-.207-1.715-.165-2.147.148-1.512 1.61-3.093 3.861-3.207 2.649.114 3.698 1.694 3.845 3.206.043.432-.051 1.246-.172 2.146.589-.12.333 1.228.304 1.661-.025.448-.188 1.149-.669 1.009-.241 1.843-1.012 2.426-1.012 2.426l.018 1.948s.488.278 2.546 1.127c2.058.851 1.412.214 3.088 1.045 2.649 1.314 2.649 4.927 2.649 4.927zM17.023 14.87c2.262.935 1.552.235 3.395 1.15 2.912 1.443 2.912 5.415 2.912 5.415h-.001v.003a1.09 1.09 0 0 1-1.093 1.089H1.093A1.09 1.09 0 0 1 0 21.438v-.003h-.001s0-3.972 2.912-5.417c1.843-.913 1.133-.171 3.395-1.106 2.262-.933 2.798-1.26 2.798-1.26l.021-2.152s-.847-.646-1.11-2.67c-.53.153-.705-.621-.736-1.113-.029-.475-.307-1.96.339-1.825-.132-.992-.227-1.886-.18-2.359C7.6 1.869 9.207.133 11.682.005c2.911.126 4.065 1.863 4.226 3.525.047.475-.056 1.369-.189 2.359.647-.132.366 1.35.334 1.825-.028.493-.207 1.263-.736 1.11-.264 2.026-1.111 2.666-1.111 2.666l.019 2.142s.536.304 2.798 1.238z" class="njcls-1"/></svg><svg preserveAspectRatio="xMidYMid" width="19.438" height="11.25" viewBox="0 0 19.438 11.25" id="nVIEW" x="68.97" y="48" xmlns="http://www.w3.org/2000/svg"><defs><style>.nkcls-1{fill:#95e1d3;fill-rule:evenodd}</style></defs><path d="M19.429 5.646l-.002.024-.001.013-.002.017-.003.021v.002a.757.757 0 0 1-.203.41c-.204.247-.427.479-.651.707-1.212 1.23-2.602 2.327-4.123 3.122-.973.509-2.012.919-3.09 1.116a8.971 8.971 0 0 1-3.55-.05c-2.04-.444-3.887-1.545-5.503-2.863-.75-.611-1.488-1.28-2.108-2.032-.272-.329-.272-.719 0-1.048.203-.247.426-.48.651-.708 1.211-1.229 2.601-2.326 4.123-3.122C5.939.747 6.978.336 8.056.139a8.971 8.971 0 0 1 3.55.051c2.04.443 3.887 1.545 5.503 2.862.75.611 1.488 1.281 2.108 2.033a.754.754 0 0 1 .209.45l.001.012.001.025.002.037-.001.037zm-9.72-3.834a3.645 3.645 0 1 0 0 7.29 3.645 3.645 0 0 0 0-7.29zm0 5.467a1.822 1.822 0 1 1 0-3.643 1.822 1.822 0 0 1 0 3.643z" class="nkcls-1"/></svg><svg preserveAspectRatio="xMidYMid" width="21" height="12" viewBox="0 0 21 12" id="n_DOWN" x="47.97" y="48" xmlns="http://www.w3.org/2000/svg"><defs><style>.nlcls-1{fill:#ccc;fill-rule:evenodd}</style></defs><path d="M2.638 11.474l7.859-7.858 7.961 7.962h.001a1.5 1.5 0 0 0 2.12-2.122h.001l-9-9h-.001A1.495 1.495 0 0 0 10.5-.002h-.007c-.424 0-.806.176-1.079.458l-9.001 9 .004.004a1.5 1.5 0 1 0 2.221 2.014z" class="nlcls-1"/></svg><svg preserveAspectRatio="xMidYMid" width="24" height="21.68" viewBox="0 0 31 28" id="n_OK" x="90.36" y="24" xmlns="http://www.w3.org/2000/svg"><defs><style>.nmcls-1{fill:#95e1d3;fill-rule:evenodd}</style></defs><path d="M29.5 23H20v2.5l2 2v.5H9v-.5l2-2V23H1.5A1.5 1.5 0 0 1 0 21.499V1.5A1.5 1.5 0 0 1 1.5 0h28A1.5 1.5 0 0 1 31 1.5v19.999A1.5 1.5 0 0 1 29.5 23zM29 2H2v17h27V2zM12.5 9c.414 0 .789.168 1.061.439l.939.939 2.939-2.939A1.499 1.499 0 0 1 20 8.5c0 .414-.168.789-.439 1.061l-4 4a1.499 1.499 0 0 1-2.122 0l-2-2.001A1.5 1.5 0 0 1 12.5 9z" class="nmcls-1"/></svg><svg preserveAspectRatio="xMidYMid" width="16" height="16" viewBox="0 0 16 16" id="ndribbble" x="114.36" xmlns="http://www.w3.org/2000/svg"><defs><style>.nncls-1{fill:#95e1d3;fill-rule:evenodd}</style></defs><path d="M15.837 6.404a7.958 7.958 0 0 0-2.18-4.046A7.935 7.935 0 0 0 9.611.177a8.04 8.04 0 0 0-6.085 1.204 8.082 8.082 0 0 0-2.159 2.16A7.94 7.94 0 0 0 0 8.014a7.906 7.906 0 0 0 .629 3.115A8.012 8.012 0 0 0 8 16.016a7.97 7.97 0 0 0 3.114-.63 8.02 8.02 0 0 0 4.257-4.257A7.964 7.964 0 0 0 16 8.014a7.96 7.96 0 0 0-.163-1.61zM14.83 7.947c-.099-.022-2.411-.519-4.759-.224-.048-.117-.096-.234-.147-.353a21.085 21.085 0 0 0-.454-.991c2.698-1.101 3.794-2.686 3.807-2.704a6.804 6.804 0 0 1 1.553 4.272zm-2.317-5.059c-.017.026-.99 1.507-3.569 2.473A34.613 34.613 0 0 0 6.39 1.375a6.803 6.803 0 0 1 6.123 1.513zM6.364 1.381l-.002.001-.02.005c.007-.003.014-.004.022-.006zm-1.279.455a41.078 41.078 0 0 1 2.537 3.936c-3.281.872-6.128.838-6.308.834a6.84 6.84 0 0 1 3.771-4.77zM1.168 8.014c0-.072.003-.144.005-.216.121.003 3.497.08 7.015-.972.196.382.383.772.554 1.16a8.34 8.34 0 0 0-.269.082c-3.687 1.192-5.557 4.51-5.557 4.51s.002.001.002.003a6.81 6.81 0 0 1-1.75-4.567zM8 14.847a6.797 6.797 0 0 1-4.352-1.566c.09.073.153.12.153.12s1.31-2.857 5.362-4.268l.045-.014c.961 2.498 1.358 4.59 1.459 5.188a6.806 6.806 0 0 1-2.667.54zm3.818-1.165c-.07-.413-.434-2.418-1.33-4.88 2.206-.353 4.117.251 4.258.298a6.838 6.838 0 0 1-2.928 4.582z" class="nncls-1"/></svg><svg preserveAspectRatio="xMidYMid" width="11.27" height="24" viewBox="0 0 12.031 25.62" id="nfacebook" x="90.36" y="45.68" xmlns="http://www.w3.org/2000/svg"><defs><style>.nocls-1{fill:#fff;fill-rule:evenodd}</style></defs><path d="M11.995.009V4.13s-3.037-.303-3.798.861c-.416.636-.169 2.5-.206 3.838h4.029c-.34 1.564-.584 2.624-.835 3.978H7.969v12.804H2.387V12.857H.012V8.829h2.349c.12-2.946.165-5.864 1.629-7.35C5.634-.192 7.203.009 11.995.009z" class="nocls-1"/></svg><svg preserveAspectRatio="xMidYMid" width="16" height="13.78" viewBox="0 0 16 13.78" id="ngoogle_plus" x="114.36" y="16" xmlns="http://www.w3.org/2000/svg"><defs><style>.npcls-1{fill:#95e1d3;fill-rule:evenodd}</style></defs><path d="M13.5 3.467v2.44h-1v-2.44H10v-.998h2.5V.029h1v2.44H16v.998h-2.5zM6.585.996c.888.491 1.408 1.288 1.408 2.331 0 .876-.541 1.566-1.239 2.102-.681.522-.81.742-.81 1.186 0 .378.729 1.024 1.111 1.289 1.114.774 1.444 1.493 1.444 2.693 0 1.497-1.444 3.169-4.116 3.169C2.039 13.766 0 12.645 0 11.148c0-1.52 1.866-2.987 4.209-2.987.256 0 .49-.01.732-.01-.321-.307-.574-.688-.574-1.151 0-.275.089-.55.213-.785-.127.009-.257-.012-.391-.012-1.924 0-3.214-1.391-3.214-3.057C.975 1.515 2.756.013 4.648.013h4.22l-.945.983H6.585zM4.656 8.549c-1.62-.017-3.071.97-3.071 2.156 0 1.209 1.17 2.094 2.789 2.094 2.277 0 3.071-.823 3.071-2.032 0-.146-.018-.289-.052-.428-.178-.685-.808-1.024-1.688-1.624a3.596 3.596 0 0 0-1.049-.166zm1.82-5.203C6.287 1.944 5.207.818 4.12.787 3.033.755 2.304 1.828 2.492 3.23 2.68 4.633 3.713 5.796 4.8 5.827c1.087.032 1.863-1.079 1.676-2.481z" class="npcls-1"/></svg><svg preserveAspectRatio="xMidYMid" width="23.97" height="24" viewBox="0 0 25.593 25.62" id="ninstagram" y="48" xmlns="http://www.w3.org/2000/svg"><defs><style>.nqcls-1{fill:#f38181;fill-rule:evenodd}</style></defs><path d="M22.387 25.61h-19.2a3.2 3.2 0 0 1-3.2-3.2V3.21a3.2 3.2 0 0 1 3.2-3.2h19.2a3.2 3.2 0 0 1 3.2 3.2v19.2a3.2 3.2 0 0 1-3.2 3.2zm-9.6-17.761a4.957 4.957 0 0 0-4.498 2.88h-.005l-.022.055a5.015 5.015 0 0 0-.128.322c-.019.052-.04.103-.057.155a4.386 4.386 0 0 0-.095.34c-.014.054-.03.106-.042.16a4.952 4.952 0 0 0-.061.368c-.007.05-.017.099-.023.15a4.96 4.96 0 1 0 9.862 0c-.006-.051-.016-.1-.023-.15a4.952 4.952 0 0 0-.061-.368c-.012-.054-.028-.106-.042-.16a4.386 4.386 0 0 0-.095-.34c-.017-.052-.038-.103-.057-.155a5.015 5.015 0 0 0-.128-.322l-.022-.055h-.005a4.957 4.957 0 0 0-4.498-2.88zm9.92-3.68a1.28 1.28 0 0 0-1.28-1.279h-2.56a1.28 1.28 0 0 0-1.28 1.279V6.73c0 .707.573 1.28 1.28 1.28h2.56a1.28 1.28 0 0 0 1.28-1.28V4.169zm0 6.56h-2.36a7.839 7.839 0 0 1-7.56 9.92 7.839 7.839 0 0 1-7.56-9.92h-2.36v10.72a1.28 1.28 0 0 0 1.28 1.281h17.28a1.28 1.28 0 0 0 1.28-1.281v-10.72z" class="nqcls-1"/></svg><svg preserveAspectRatio="xMidYMid" width="18.36" height="24" viewBox="0 0 19.594 25.62" id="npinterest" xmlns="http://www.w3.org/2000/svg"><defs><style>.nrcls-1{fill:#f38181;fill-rule:evenodd}</style></defs><path d="M8.145 16.634c-.209.833-.42 1.706-.638 2.56-.215.842-.405 1.696-.718 2.47-.519 1.281-1.178 2.519-2.043 3.521-.575.667-.453.401-.626.365-.132-.027-.143-.157-.169-.345-.141-1.018-.045-2.195.007-3.339.06-1.304.334-2.388.589-3.471.484-2.063.946-4.087 1.435-6.164.032-.138.12-.366.09-.445-.222-.577-.366-1.095-.429-1.7a5.42 5.42 0 0 1 .139-1.944c.277-1.058.913-1.995 1.894-2.338.624-.216 1.315-.118 1.735.132.432.259.729.667.867 1.246.148.615.039 1.351-.08 1.891-.267 1.219-.618 2.134-.937 3.31-.158.583-.337 1.182-.189 1.812.136.578.437.976.847 1.275.426.31.93.479 1.625.455 1.228-.043 2.081-.828 2.651-1.568.913-1.185 1.465-2.784 1.675-4.686.067-.614.117-1.319.07-2.014-.088-1.284-.489-2.317-1.127-3.117-.606-.762-1.466-1.369-2.512-1.711-1.037-.338-2.472-.451-3.747-.233-2.318.397-3.952 1.714-4.915 3.533a7.082 7.082 0 0 0-.837 3.41c0 1.051.259 1.865.678 2.5.133.201.328.367.458.597.185.326-.028.811-.119 1.164-.11.425-.122 1.012-.618 1.022-.206.004-.464-.146-.638-.243-1.305-.721-2.097-2.033-2.422-3.734a8.921 8.921 0 0 1 0-3.238 9.232 9.232 0 0 1 4.396-6.144C5.653.803 6.912.34 8.444.117a16.318 16.318 0 0 1 1.605-.131 9.637 9.637 0 0 1 4.326.809 8.839 8.839 0 0 1 2.98 2.146c.838.915 1.448 1.979 1.834 3.309.202.692.398 1.432.398 2.287 0 .858-.181 1.613-.308 2.368-.474 2.828-1.819 5.141-3.838 6.458a6.611 6.611 0 0 1-1.754.809c-.667.194-1.428.34-2.243.283a4.586 4.586 0 0 1-1.983-.577c-.54-.305-.994-.679-1.316-1.244z" class="nrcls-1"/></svg><svg preserveAspectRatio="xMidYMid" width="10" height="16.03" viewBox="0 0 10 16.03" id="ntumblr" x="101.63" y="45.68" xmlns="http://www.w3.org/2000/svg"><defs><style>.nscls-1{fill:#95e1d3;fill-rule:evenodd}</style></defs><path d="M10.009 15.145c-.68.321-1.297.548-1.849.678a7.792 7.792 0 0 1-1.789.195 4.863 4.863 0 0 1-1.718-.276 4.18 4.18 0 0 1-1.431-.79c-.396-.343-.669-.708-.823-1.092-.152-.386-.228-.944-.228-1.677V6.569H.007V4.302c.626-.204 1.351-.497 1.796-.879a4.363 4.363 0 0 0 1.075-1.375c.27-.534.457-1.213.558-2.04h2.265v3.704h3.682v2.857H5.701v4.105c0 .929-.012 1.464.086 1.727.097.262.341.534.607.691a2.3 2.3 0 0 0 1.209.319c.806 0 1.608-.264 2.406-.791v2.525z" class="nscls-1"/></svg><svg preserveAspectRatio="xMidYMid" width="24" height="19.5" viewBox="0 0 25.594 20.79" id="ntwitter" x="24" y="24" xmlns="http://www.w3.org/2000/svg"><defs><style>.ntcls-1{fill:#f38181;fill-rule:evenodd}</style></defs><path d="M17.419.011c2.034-.036 3.117.705 4.151 1.648.878-.076 2.019-.566 2.691-.908l.653-.357c-.384 1.037-.904 1.849-1.704 2.466-.178.136-.354.321-.577.408v.013c1.14-.011 2.08-.526 2.973-.805v.013c-.469.745-1.104 1.502-1.781 2.044l-.82.651c.015 1.207-.018 2.359-.243 3.373-1.312 5.895-4.788 9.898-10.289 11.612-1.976.615-5.168.868-7.432.306-1.122-.278-2.136-.593-3.087-1.008A12.443 12.443 0 0 1 .467 18.7l-.461-.281c.51.015 1.108.156 1.678.064.517-.084 1.023-.062 1.5-.166 1.188-.261 2.243-.606 3.151-1.137.441-.259 1.11-.561 1.423-.933-.59.011-1.125-.127-1.563-.281-1.699-.6-2.688-1.703-3.332-3.36.515.057 1.998.191 2.345-.102-.648-.036-1.271-.411-1.717-.689-1.367-.856-2.481-2.29-2.473-4.497l.538.255c.344.145.693.222 1.102.307.173.036.519.137.718.063H3.35c-.264-.307-.695-.512-.961-.843C1.512 6.011.691 4.334 1.21 2.336c.132-.507.341-.954.564-1.367L1.8.981c.102.214.33.371.474.55.448.555 1 1.054 1.563 1.494 1.918 1.501 3.645 2.422 6.419 3.104a9.983 9.983 0 0 0 2.358.307c-.236-.687-.16-1.8.025-2.465.468-1.674 1.483-2.879 2.973-3.525a6.33 6.33 0 0 1 1.166-.359l.641-.076z" class="ntcls-1"/></svg><svg preserveAspectRatio="xMidYMid" width="16" height="11" viewBox="0 0 16 11" id="nyoutube" x="114.36" y="29.78" xmlns="http://www.w3.org/2000/svg"><defs><style>.nucls-1{fill:#95e1d3;fill-rule:evenodd}</style></defs><path d="M13.537-.007L8.312-.012l-5.429.005C1.525-.007 0 .899 0 2.229v6.618c0 1.329 1.525 2.14 2.883 2.14h10.654c1.359 0 2.459-.811 2.459-2.14V2.229c0-1.33-1.1-2.236-2.459-2.236zM6.964 8.036l-.032-5.04 3.508 2.542-3.476 2.498z" class="nucls-1"/></svg></symbol><symbol preserveAspectRatio="xMidYMid" viewBox="0 0 16 16" id="dribbble" xmlns="http://www.w3.org/2000/svg"><defs><style>.ocls-1{fill:#95e1d3;fill-rule:evenodd}</style></defs><path d="M15.837 6.404a7.958 7.958 0 0 0-2.18-4.046A7.935 7.935 0 0 0 9.611.177a8.04 8.04 0 0 0-6.085 1.204 8.082 8.082 0 0 0-2.159 2.16A7.94 7.94 0 0 0 0 8.014a7.906 7.906 0 0 0 .629 3.115A8.012 8.012 0 0 0 8 16.016a7.97 7.97 0 0 0 3.114-.63 8.02 8.02 0 0 0 4.257-4.257A7.964 7.964 0 0 0 16 8.014a7.96 7.96 0 0 0-.163-1.61zM14.83 7.947c-.099-.022-2.411-.519-4.759-.224-.048-.117-.096-.234-.147-.353a21.085 21.085 0 0 0-.454-.991c2.698-1.101 3.794-2.686 3.807-2.704a6.804 6.804 0 0 1 1.553 4.272zm-2.317-5.059c-.017.026-.99 1.507-3.569 2.473A34.613 34.613 0 0 0 6.39 1.375a6.803 6.803 0 0 1 6.123 1.513zM6.364 1.381l-.002.001-.02.005c.007-.003.014-.004.022-.006zm-1.279.455a41.078 41.078 0 0 1 2.537 3.936c-3.281.872-6.128.838-6.308.834a6.84 6.84 0 0 1 3.771-4.77zM1.168 8.014c0-.072.003-.144.005-.216.121.003 3.497.08 7.015-.972.196.382.383.772.554 1.16a8.34 8.34 0 0 0-.269.082c-3.687 1.192-5.557 4.51-5.557 4.51s.002.001.002.003a6.81 6.81 0 0 1-1.75-4.567zM8 14.847a6.797 6.797 0 0 1-4.352-1.566c.09.073.153.12.153.12s1.31-2.857 5.362-4.268l.045-.014c.961 2.498 1.358 4.59 1.459 5.188a6.806 6.806 0 0 1-2.667.54zm3.818-1.165c-.07-.413-.434-2.418-1.33-4.88 2.206-.353 4.117.251 4.258.298a6.838 6.838 0 0 1-2.928 4.582z" class="ocls-1"/></symbol><symbol preserveAspectRatio="xMidYMid" viewBox="0 0 12.031 25.62" id="facebook" xmlns="http://www.w3.org/2000/svg"><defs><style>.pcls-1{fill:#fff;fill-rule:evenodd}</style></defs><path d="M11.995.009V4.13s-3.037-.303-3.798.861c-.416.636-.169 2.5-.206 3.838h4.029c-.34 1.564-.584 2.624-.835 3.978H7.969v12.804H2.387V12.857H.012V8.829h2.349c.12-2.946.165-5.864 1.629-7.35C5.634-.192 7.203.009 11.995.009z" class="pcls-1"/></symbol><symbol preserveAspectRatio="xMidYMid" viewBox="0 0 16 13.78" id="google_plus" xmlns="http://www.w3.org/2000/svg"><defs><style>.qcls-1{fill:#95e1d3;fill-rule:evenodd}</style></defs><path d="M13.5 3.467v2.44h-1v-2.44H10v-.998h2.5V.029h1v2.44H16v.998h-2.5zM6.585.996c.888.491 1.408 1.288 1.408 2.331 0 .876-.541 1.566-1.239 2.102-.681.522-.81.742-.81 1.186 0 .378.729 1.024 1.111 1.289 1.114.774 1.444 1.493 1.444 2.693 0 1.497-1.444 3.169-4.116 3.169C2.039 13.766 0 12.645 0 11.148c0-1.52 1.866-2.987 4.209-2.987.256 0 .49-.01.732-.01-.321-.307-.574-.688-.574-1.151 0-.275.089-.55.213-.785-.127.009-.257-.012-.391-.012-1.924 0-3.214-1.391-3.214-3.057C.975 1.515 2.756.013 4.648.013h4.22l-.945.983H6.585zM4.656 8.549c-1.62-.017-3.071.97-3.071 2.156 0 1.209 1.17 2.094 2.789 2.094 2.277 0 3.071-.823 3.071-2.032 0-.146-.018-.289-.052-.428-.178-.685-.808-1.024-1.688-1.624a3.596 3.596 0 0 0-1.049-.166zm1.82-5.203C6.287 1.944 5.207.818 4.12.787 3.033.755 2.304 1.828 2.492 3.23 2.68 4.633 3.713 5.796 4.8 5.827c1.087.032 1.863-1.079 1.676-2.481z" class="qcls-1"/></symbol><symbol preserveAspectRatio="xMidYMid" viewBox="0 0 25.593 25.62" id="instagram" xmlns="http://www.w3.org/2000/svg"><defs><style>.rcls-1{fill:#f38181;fill-rule:evenodd}</style></defs><path d="M22.387 25.61h-19.2a3.2 3.2 0 0 1-3.2-3.2V3.21a3.2 3.2 0 0 1 3.2-3.2h19.2a3.2 3.2 0 0 1 3.2 3.2v19.2a3.2 3.2 0 0 1-3.2 3.2zm-9.6-17.761a4.957 4.957 0 0 0-4.498 2.88h-.005l-.022.055a5.015 5.015 0 0 0-.128.322c-.019.052-.04.103-.057.155a4.386 4.386 0 0 0-.095.34c-.014.054-.03.106-.042.16a4.952 4.952 0 0 0-.061.368c-.007.05-.017.099-.023.15a4.96 4.96 0 1 0 9.862 0c-.006-.051-.016-.1-.023-.15a4.952 4.952 0 0 0-.061-.368c-.012-.054-.028-.106-.042-.16a4.386 4.386 0 0 0-.095-.34c-.017-.052-.038-.103-.057-.155a5.015 5.015 0 0 0-.128-.322l-.022-.055h-.005a4.957 4.957 0 0 0-4.498-2.88zm9.92-3.68a1.28 1.28 0 0 0-1.28-1.279h-2.56a1.28 1.28 0 0 0-1.28 1.279V6.73c0 .707.573 1.28 1.28 1.28h2.56a1.28 1.28 0 0 0 1.28-1.28V4.169zm0 6.56h-2.36a7.839 7.839 0 0 1-7.56 9.92 7.839 7.839 0 0 1-7.56-9.92h-2.36v10.72a1.28 1.28 0 0 0 1.28 1.281h17.28a1.28 1.28 0 0 0 1.28-1.281v-10.72z" class="rcls-1"/></symbol><symbol preserveAspectRatio="xMidYMid" viewBox="0 0 19.594 25.62" id="pinterest" xmlns="http://www.w3.org/2000/svg"><defs><style>.scls-1{fill:#f38181;fill-rule:evenodd}</style></defs><path d="M8.145 16.634c-.209.833-.42 1.706-.638 2.56-.215.842-.405 1.696-.718 2.47-.519 1.281-1.178 2.519-2.043 3.521-.575.667-.453.401-.626.365-.132-.027-.143-.157-.169-.345-.141-1.018-.045-2.195.007-3.339.06-1.304.334-2.388.589-3.471.484-2.063.946-4.087 1.435-6.164.032-.138.12-.366.09-.445-.222-.577-.366-1.095-.429-1.7a5.42 5.42 0 0 1 .139-1.944c.277-1.058.913-1.995 1.894-2.338.624-.216 1.315-.118 1.735.132.432.259.729.667.867 1.246.148.615.039 1.351-.08 1.891-.267 1.219-.618 2.134-.937 3.31-.158.583-.337 1.182-.189 1.812.136.578.437.976.847 1.275.426.31.93.479 1.625.455 1.228-.043 2.081-.828 2.651-1.568.913-1.185 1.465-2.784 1.675-4.686.067-.614.117-1.319.07-2.014-.088-1.284-.489-2.317-1.127-3.117-.606-.762-1.466-1.369-2.512-1.711-1.037-.338-2.472-.451-3.747-.233-2.318.397-3.952 1.714-4.915 3.533a7.082 7.082 0 0 0-.837 3.41c0 1.051.259 1.865.678 2.5.133.201.328.367.458.597.185.326-.028.811-.119 1.164-.11.425-.122 1.012-.618 1.022-.206.004-.464-.146-.638-.243-1.305-.721-2.097-2.033-2.422-3.734a8.921 8.921 0 0 1 0-3.238 9.232 9.232 0 0 1 4.396-6.144C5.653.803 6.912.34 8.444.117a16.318 16.318 0 0 1 1.605-.131 9.637 9.637 0 0 1 4.326.809 8.839 8.839 0 0 1 2.98 2.146c.838.915 1.448 1.979 1.834 3.309.202.692.398 1.432.398 2.287 0 .858-.181 1.613-.308 2.368-.474 2.828-1.819 5.141-3.838 6.458a6.611 6.611 0 0 1-1.754.809c-.667.194-1.428.34-2.243.283a4.586 4.586 0 0 1-1.983-.577c-.54-.305-.994-.679-1.316-1.244z" class="scls-1"/></symbol><symbol preserveAspectRatio="xMidYMid" viewBox="0 0 10 16.03" id="tumblr" xmlns="http://www.w3.org/2000/svg"><defs><style>.tcls-1{fill:#95e1d3;fill-rule:evenodd}</style></defs><path d="M10.009 15.145c-.68.321-1.297.548-1.849.678a7.792 7.792 0 0 1-1.789.195 4.863 4.863 0 0 1-1.718-.276 4.18 4.18 0 0 1-1.431-.79c-.396-.343-.669-.708-.823-1.092-.152-.386-.228-.944-.228-1.677V6.569H.007V4.302c.626-.204 1.351-.497 1.796-.879a4.363 4.363 0 0 0 1.075-1.375c.27-.534.457-1.213.558-2.04h2.265v3.704h3.682v2.857H5.701v4.105c0 .929-.012 1.464.086 1.727.097.262.341.534.607.691a2.3 2.3 0 0 0 1.209.319c.806 0 1.608-.264 2.406-.791v2.525z" class="tcls-1"/></symbol><symbol preserveAspectRatio="xMidYMid" viewBox="0 0 25.594 20.79" id="twitter" xmlns="http://www.w3.org/2000/svg"><defs><style>.ucls-1{fill:#f38181;fill-rule:evenodd}</style></defs><path d="M17.419.011c2.034-.036 3.117.705 4.151 1.648.878-.076 2.019-.566 2.691-.908l.653-.357c-.384 1.037-.904 1.849-1.704 2.466-.178.136-.354.321-.577.408v.013c1.14-.011 2.08-.526 2.973-.805v.013c-.469.745-1.104 1.502-1.781 2.044l-.82.651c.015 1.207-.018 2.359-.243 3.373-1.312 5.895-4.788 9.898-10.289 11.612-1.976.615-5.168.868-7.432.306-1.122-.278-2.136-.593-3.087-1.008A12.443 12.443 0 0 1 .467 18.7l-.461-.281c.51.015 1.108.156 1.678.064.517-.084 1.023-.062 1.5-.166 1.188-.261 2.243-.606 3.151-1.137.441-.259 1.11-.561 1.423-.933-.59.011-1.125-.127-1.563-.281-1.699-.6-2.688-1.703-3.332-3.36.515.057 1.998.191 2.345-.102-.648-.036-1.271-.411-1.717-.689-1.367-.856-2.481-2.29-2.473-4.497l.538.255c.344.145.693.222 1.102.307.173.036.519.137.718.063H3.35c-.264-.307-.695-.512-.961-.843C1.512 6.011.691 4.334 1.21 2.336c.132-.507.341-.954.564-1.367L1.8.981c.102.214.33.371.474.55.448.555 1 1.054 1.563 1.494 1.918 1.501 3.645 2.422 6.419 3.104a9.983 9.983 0 0 0 2.358.307c-.236-.687-.16-1.8.025-2.465.468-1.674 1.483-2.879 2.973-3.525a6.33 6.33 0 0 1 1.166-.359l.641-.076z" class="ucls-1"/></symbol><symbol preserveAspectRatio="xMidYMid" viewBox="0 0 16 11" id="youtube" xmlns="http://www.w3.org/2000/svg"><defs><style>.vcls-1{fill:#95e1d3;fill-rule:evenodd}</style></defs><path d="M13.537-.007L8.312-.012l-5.429.005C1.525-.007 0 .899 0 2.229v6.618c0 1.329 1.525 2.14 2.883 2.14h10.654c1.359 0 2.459-.811 2.459-2.14V2.229c0-1.33-1.1-2.236-2.459-2.236zM6.964 8.036l-.032-5.04 3.508 2.542-3.476 2.498z" class="vcls-1"/></symbol></svg>